<svg width="21" height="1001" viewBox="0 0 21 1001" fill="none" xmlns="http://www.w3.org/2000/svg">
<path d="M7 56H0V63H7V56Z" fill="white" fill-opacity="0.1"/>
<path d="M21 56H14V63H21V56Z" fill="white" fill-opacity="0.1"/>
<path d="M7 42H0V49H7V42Z" fill="white" fill-opacity="0.1"/>
<path d="M14 49H7V56H14V49Z" fill="white" fill-opacity="0.1"/>
<path d="M21 42H14V49H21V42Z" fill="white" fill-opacity="0.1"/>
<path d="M7 28H0V35H7V28Z" fill="white" fill-opacity="0.1"/>
<path d="M14 35H7V42H14V35Z" fill="white" fill-opacity="0.1"/>
<path d="M21 28H14V35H21V28Z" fill="white" fill-opacity="0.1"/>
<path d="M7 14H0V21H7V14Z" fill="white" fill-opacity="0.1"/>
<path d="M14 21H7V28H14V21Z" fill="white" fill-opacity="0.1"/>
<path d="M7 98H0V105H7V98Z" fill="white" fill-opacity="0.1"/>
<path d="M21 98H14V105H21V98Z" fill="white" fill-opacity="0.1"/>
<path d="M7 84H0V91H7V84Z" fill="white" fill-opacity="0.1"/>
<path d="M14 91H7V98H14V91Z" fill="white" fill-opacity="0.1"/>
<path d="M21 84H14V91H21V84Z" fill="white" fill-opacity="0.1"/>
<path d="M7 70H0V77H7V70Z" fill="white" fill-opacity="0.1"/>
<path d="M14 77H7V84H14V77Z" fill="white" fill-opacity="0.1"/>
<path d="M21 70H14V77H21V70Z" fill="white" fill-opacity="0.1"/>
<path d="M14 63H7V70H14V63Z" fill="white" fill-opacity="0.1"/>
<path d="M7 140H0V147H7V140Z" fill="white" fill-opacity="0.1"/>
<path d="M21 140H14V147H21V140Z" fill="white" fill-opacity="0.1"/>
<path d="M7 126H0V133H7V126Z" fill="white" fill-opacity="0.1"/>
<path d="M14 133H7V140H14V133Z" fill="white" fill-opacity="0.1"/>
<path d="M21 126H14V133H21V126Z" fill="white" fill-opacity="0.1"/>
<path d="M7 112H0V119H7V112Z" fill="white" fill-opacity="0.1"/>
<path d="M14 119H7V126H14V119Z" fill="white" fill-opacity="0.1"/>
<path d="M21 112H14V119H21V112Z" fill="white" fill-opacity="0.1"/>
<path d="M14 105H7V112H14V105Z" fill="white" fill-opacity="0.1"/>
<path d="M7 182H0V189H7V182Z" fill="white" fill-opacity="0.1"/>
<path d="M21 182H14V189H21V182Z" fill="white" fill-opacity="0.1"/>
<path d="M7 168H0V175H7V168Z" fill="white" fill-opacity="0.1"/>
<path d="M14 175H7V182H14V175Z" fill="white" fill-opacity="0.1"/>
<path d="M21 168H14V175H21V168Z" fill="white" fill-opacity="0.1"/>
<path d="M7 154H0V161H7V154Z" fill="white" fill-opacity="0.1"/>
<path d="M14 161H7V168H14V161Z" fill="white" fill-opacity="0.1"/>
<path d="M21 154H14V161H21V154Z" fill="white" fill-opacity="0.1"/>
<path d="M14 147H7V154H14V147Z" fill="white" fill-opacity="0.1"/>
<path d="M7 224H0V231H7V224Z" fill="white" fill-opacity="0.1"/>
<path d="M21 224H14V231H21V224Z" fill="white" fill-opacity="0.1"/>
<path d="M7 210H0V217H7V210Z" fill="white" fill-opacity="0.1"/>
<path d="M14 217H7V224H14V217Z" fill="white" fill-opacity="0.1"/>
<path d="M21 210H14V217H21V210Z" fill="white" fill-opacity="0.1"/>
<path d="M7 196H0V203H7V196Z" fill="white" fill-opacity="0.1"/>
<path d="M14 203H7V210H14V203Z" fill="white" fill-opacity="0.1"/>
<path d="M21 196H14V203H21V196Z" fill="white" fill-opacity="0.1"/>
<path d="M14 189H7V196H14V189Z" fill="white" fill-opacity="0.1"/>
<path d="M7 266H0V273H7V266Z" fill="white" fill-opacity="0.1"/>
<path d="M21 266H14V273H21V266Z" fill="white" fill-opacity="0.1"/>
<path d="M7 252H0V259H7V252Z" fill="white" fill-opacity="0.1"/>
<path d="M14 259H7V266H14V259Z" fill="white" fill-opacity="0.1"/>
<path d="M21 252H14V259H21V252Z" fill="white" fill-opacity="0.1"/>
<path d="M7 238H0V245H7V238Z" fill="white" fill-opacity="0.1"/>
<path d="M14 245H7V252H14V245Z" fill="white" fill-opacity="0.1"/>
<path d="M21 238H14V245H21V238Z" fill="white" fill-opacity="0.1"/>
<path d="M14 231H7V238H14V231Z" fill="white" fill-opacity="0.1"/>
<path d="M7 308H0V315H7V308Z" fill="white" fill-opacity="0.1"/>
<path d="M21 308H14V315H21V308Z" fill="white" fill-opacity="0.1"/>
<path d="M7 294H0V301H7V294Z" fill="white" fill-opacity="0.1"/>
<path d="M14 301H7V308H14V301Z" fill="white" fill-opacity="0.1"/>
<path d="M21 294H14V301H21V294Z" fill="white" fill-opacity="0.1"/>
<path d="M7 280H0V287H7V280Z" fill="white" fill-opacity="0.1"/>
<path d="M14 287H7V294H14V287Z" fill="white" fill-opacity="0.1"/>
<path d="M21 280H14V287H21V280Z" fill="white" fill-opacity="0.1"/>
<path d="M14 273H7V280H14V273Z" fill="white" fill-opacity="0.1"/>
<path d="M7 350H0V357H7V350Z" fill="white" fill-opacity="0.1"/>
<path d="M21 350H14V357H21V350Z" fill="white" fill-opacity="0.1"/>
<path d="M7 336H0V343H7V336Z" fill="white" fill-opacity="0.1"/>
<path d="M14 343H7V350H14V343Z" fill="white" fill-opacity="0.1"/>
<path d="M21 336H14V343H21V336Z" fill="white" fill-opacity="0.1"/>
<path d="M7 322H0V329H7V322Z" fill="white" fill-opacity="0.1"/>
<path d="M14 329H7V336H14V329Z" fill="white" fill-opacity="0.1"/>
<path d="M21 322H14V329H21V322Z" fill="white" fill-opacity="0.1"/>
<path d="M14 315H7V322H14V315Z" fill="white" fill-opacity="0.1"/>
<path d="M7 392H0V399H7V392Z" fill="white" fill-opacity="0.1"/>
<path d="M21 392H14V399H21V392Z" fill="white" fill-opacity="0.1"/>
<path d="M7 378H0V385H7V378Z" fill="white" fill-opacity="0.1"/>
<path d="M14 385H7V392H14V385Z" fill="white" fill-opacity="0.1"/>
<path d="M21 378H14V385H21V378Z" fill="white" fill-opacity="0.1"/>
<path d="M7 364H0V371H7V364Z" fill="white" fill-opacity="0.1"/>
<path d="M14 371H7V378H14V371Z" fill="white" fill-opacity="0.1"/>
<path d="M21 364H14V371H21V364Z" fill="white" fill-opacity="0.1"/>
<path d="M14 357H7V364H14V357Z" fill="white" fill-opacity="0.1"/>
<path d="M7 434H0V441H7V434Z" fill="white" fill-opacity="0.1"/>
<path d="M21 434H14V441H21V434Z" fill="white" fill-opacity="0.1"/>
<path d="M7 420H0V427H7V420Z" fill="white" fill-opacity="0.1"/>
<path d="M14 427H7V434H14V427Z" fill="white" fill-opacity="0.1"/>
<path d="M21 420H14V427H21V420Z" fill="white" fill-opacity="0.1"/>
<path d="M7 406H0V413H7V406Z" fill="white" fill-opacity="0.1"/>
<path d="M14 413H7V420H14V413Z" fill="white" fill-opacity="0.1"/>
<path d="M21 406H14V413H21V406Z" fill="white" fill-opacity="0.1"/>
<path d="M14 399H7V406H14V399Z" fill="white" fill-opacity="0.1"/>
<path d="M7 476H0V483H7V476Z" fill="white" fill-opacity="0.1"/>
<path d="M21 476H14V483H21V476Z" fill="white" fill-opacity="0.1"/>
<path d="M7 462H0V469H7V462Z" fill="white" fill-opacity="0.1"/>
<path d="M14 469H7V476H14V469Z" fill="white" fill-opacity="0.1"/>
<path d="M21 462H14V469H21V462Z" fill="white" fill-opacity="0.1"/>
<path d="M7 448H0V455H7V448Z" fill="white" fill-opacity="0.1"/>
<path d="M14 455H7V462H14V455Z" fill="white" fill-opacity="0.1"/>
<path d="M21 448H14V455H21V448Z" fill="white" fill-opacity="0.1"/>
<path d="M14 441H7V448H14V441Z" fill="white" fill-opacity="0.1"/>
<path d="M7 518H0V525H7V518Z" fill="white" fill-opacity="0.1"/>
<path d="M21 518H14V525H21V518Z" fill="white" fill-opacity="0.1"/>
<path d="M7 504H0V511H7V504Z" fill="white" fill-opacity="0.1"/>
<path d="M14 511H7V518H14V511Z" fill="white" fill-opacity="0.1"/>
<path d="M21 504H14V511H21V504Z" fill="white" fill-opacity="0.1"/>
<path d="M7 490H0V497H7V490Z" fill="white" fill-opacity="0.1"/>
<path d="M14 497H7V504H14V497Z" fill="white" fill-opacity="0.1"/>
<path d="M21 490H14V497H21V490Z" fill="white" fill-opacity="0.1"/>
<path d="M14 483H7V490H14V483Z" fill="white" fill-opacity="0.1"/>
<path d="M7 560H0V567H7V560Z" fill="white" fill-opacity="0.1"/>
<path d="M21 560H14V567H21V560Z" fill="white" fill-opacity="0.1"/>
<path d="M7 546H0V553H7V546Z" fill="white" fill-opacity="0.1"/>
<path d="M14 553H7V560H14V553Z" fill="white" fill-opacity="0.1"/>
<path d="M21 546H14V553H21V546Z" fill="white" fill-opacity="0.1"/>
<path d="M7 532H0V539H7V532Z" fill="white" fill-opacity="0.1"/>
<path d="M14 539H7V546H14V539Z" fill="white" fill-opacity="0.1"/>
<path d="M21 532H14V539H21V532Z" fill="white" fill-opacity="0.1"/>
<path d="M14 525H7V532H14V525Z" fill="white" fill-opacity="0.1"/>
<path d="M7 602H0V609H7V602Z" fill="white" fill-opacity="0.1"/>
<path d="M21 602H14V609H21V602Z" fill="white" fill-opacity="0.1"/>
<path d="M7 588H0V595H7V588Z" fill="white" fill-opacity="0.1"/>
<path d="M14 595H7V602H14V595Z" fill="white" fill-opacity="0.1"/>
<path d="M21 588H14V595H21V588Z" fill="white" fill-opacity="0.1"/>
<path d="M7 574H0V581H7V574Z" fill="white" fill-opacity="0.1"/>
<path d="M14 581H7V588H14V581Z" fill="white" fill-opacity="0.1"/>
<path d="M21 574H14V581H21V574Z" fill="white" fill-opacity="0.1"/>
<path d="M14 567H7V574H14V567Z" fill="white" fill-opacity="0.1"/>
<path d="M7 644H0V651H7V644Z" fill="white" fill-opacity="0.1"/>
<path d="M21 644H14V651H21V644Z" fill="white" fill-opacity="0.1"/>
<path d="M7 630H0V637H7V630Z" fill="white" fill-opacity="0.1"/>
<path d="M14 637H7V644H14V637Z" fill="white" fill-opacity="0.1"/>
<path d="M21 630H14V637H21V630Z" fill="white" fill-opacity="0.1"/>
<path d="M7 616H0V623H7V616Z" fill="white" fill-opacity="0.1"/>
<path d="M14 623H7V630H14V623Z" fill="white" fill-opacity="0.1"/>
<path d="M21 616H14V623H21V616Z" fill="white" fill-opacity="0.1"/>
<path d="M14 609H7V616H14V609Z" fill="white" fill-opacity="0.1"/>
<path d="M7 686H0V693H7V686Z" fill="white" fill-opacity="0.1"/>
<path d="M21 686H14V693H21V686Z" fill="white" fill-opacity="0.1"/>
<path d="M7 672H0V679H7V672Z" fill="white" fill-opacity="0.1"/>
<path d="M14 679H7V686H14V679Z" fill="white" fill-opacity="0.1"/>
<path d="M21 672H14V679H21V672Z" fill="white" fill-opacity="0.1"/>
<path d="M7 658H0V665H7V658Z" fill="white" fill-opacity="0.1"/>
<path d="M14 665H7V672H14V665Z" fill="white" fill-opacity="0.1"/>
<path d="M21 658H14V665H21V658Z" fill="white" fill-opacity="0.1"/>
<path d="M14 651H7V658H14V651Z" fill="white" fill-opacity="0.1"/>
<path d="M7 728H0V735H7V728Z" fill="white" fill-opacity="0.1"/>
<path d="M21 728H14V735H21V728Z" fill="white" fill-opacity="0.1"/>
<path d="M7 714H0V721H7V714Z" fill="white" fill-opacity="0.1"/>
<path d="M14 721H7V728H14V721Z" fill="white" fill-opacity="0.1"/>
<path d="M21 714H14V721H21V714Z" fill="white" fill-opacity="0.1"/>
<path d="M7 700H0V707H7V700Z" fill="white" fill-opacity="0.1"/>
<path d="M14 707H7V714H14V707Z" fill="white" fill-opacity="0.1"/>
<path d="M21 700H14V707H21V700Z" fill="white" fill-opacity="0.1"/>
<path d="M14 693H7V700H14V693Z" fill="white" fill-opacity="0.1"/>
<path d="M7 770H0V777H7V770Z" fill="white" fill-opacity="0.1"/>
<path d="M21 770H14V777H21V770Z" fill="white" fill-opacity="0.1"/>
<path d="M7 756H0V763H7V756Z" fill="white" fill-opacity="0.1"/>
<path d="M14 763H7V770H14V763Z" fill="white" fill-opacity="0.1"/>
<path d="M21 756H14V763H21V756Z" fill="white" fill-opacity="0.1"/>
<path d="M7 742H0V749H7V742Z" fill="white" fill-opacity="0.1"/>
<path d="M14 749H7V756H14V749Z" fill="white" fill-opacity="0.1"/>
<path d="M21 742H14V749H21V742Z" fill="white" fill-opacity="0.1"/>
<path d="M14 735H7V742H14V735Z" fill="white" fill-opacity="0.1"/>
<path d="M7 812H0V819H7V812Z" fill="white" fill-opacity="0.1"/>
<path d="M21 812H14V819H21V812Z" fill="white" fill-opacity="0.1"/>
<path d="M7 798H0V805H7V798Z" fill="white" fill-opacity="0.1"/>
<path d="M14 805H7V812H14V805Z" fill="white" fill-opacity="0.1"/>
<path d="M21 798H14V805H21V798Z" fill="white" fill-opacity="0.1"/>
<path d="M7 784H0V791H7V784Z" fill="white" fill-opacity="0.1"/>
<path d="M14 791H7V798H14V791Z" fill="white" fill-opacity="0.1"/>
<path d="M21 784H14V791H21V784Z" fill="white" fill-opacity="0.1"/>
<path d="M14 777H7V784H14V777Z" fill="white" fill-opacity="0.1"/>
<path d="M7 840H0V847H7V840Z" fill="white" fill-opacity="0.1"/>
<path d="M21 840H14V847H21V840Z" fill="white" fill-opacity="0.1"/>
<path d="M7 826H0V833H7V826Z" fill="white" fill-opacity="0.1"/>
<path d="M14 833H7V840H14V833Z" fill="white" fill-opacity="0.1"/>
<path d="M21 826H14V833H21V826Z" fill="white" fill-opacity="0.1"/>
<path d="M14 819H7V826H14V819Z" fill="white" fill-opacity="0.1"/>
<path d="M21 14H14V21H21V14Z" fill="white" fill-opacity="0.1"/>
<path d="M7 0H0V7H7V0Z" fill="white" fill-opacity="0.1"/>
<path d="M14 7H7V14H14V7Z" fill="white" fill-opacity="0.1"/>
<path d="M21 0H14V7H21V0Z" fill="white" fill-opacity="0.1"/>
<path d="M7 854H0V861H7V854Z" fill="white" fill-opacity="0.1"/>
<path d="M21 854H14V861H21V854Z" fill="white" fill-opacity="0.1"/>
<path d="M14 847H7V854H14V847Z" fill="white" fill-opacity="0.1"/>
<path d="M7 868H0V875H7V868Z" fill="white" fill-opacity="0.1"/>
<path d="M7 882H0V889H7V882Z" fill="white" fill-opacity="0.1"/>
<path d="M7 896H0V903H7V896Z" fill="white" fill-opacity="0.1"/>
<path d="M7 910H0V917H7V910Z" fill="white" fill-opacity="0.1"/>
<path d="M7 924H0V931H7V924Z" fill="white" fill-opacity="0.1"/>
<path d="M7 938H0V945H7V938Z" fill="white" fill-opacity="0.1"/>
<path d="M7 952H0V959H7V952Z" fill="white" fill-opacity="0.1"/>
<path d="M7 966H0V973H7V966Z" fill="white" fill-opacity="0.1"/>
<path d="M7 980H0V987H7V980Z" fill="white" fill-opacity="0.1"/>
<path d="M7 994H0V1001H7V994Z" fill="white" fill-opacity="0.1"/>
<path d="M21 868H14V875H21V868Z" fill="white" fill-opacity="0.1"/>
<path d="M21 882H14V889H21V882Z" fill="white" fill-opacity="0.1"/>
<path d="M21 896H14V903H21V896Z" fill="white" fill-opacity="0.1"/>
<path d="M21 910H14V917H21V910Z" fill="white" fill-opacity="0.1"/>
<path d="M21 924H14V931H21V924Z" fill="white" fill-opacity="0.1"/>
<path d="M21 938H14V945H21V938Z" fill="white" fill-opacity="0.1"/>
<path d="M21 952H14V959H21V952Z" fill="white" fill-opacity="0.1"/>
<path d="M21 966H14V973H21V966Z" fill="white" fill-opacity="0.1"/>
<path d="M21 980H14V987H21V980Z" fill="white" fill-opacity="0.1"/>
<path d="M21 994H14V1001H21V994Z" fill="white" fill-opacity="0.1"/>
<path d="M14 861H7V868H14V861Z" fill="white" fill-opacity="0.1"/>
<path d="M14 875H7V882H14V875Z" fill="white" fill-opacity="0.1"/>
<path d="M14 889H7V896H14V889Z" fill="white" fill-opacity="0.1"/>
<path d="M14 903H7V910H14V903Z" fill="white" fill-opacity="0.1"/>
<path d="M14 917H7V924H14V917Z" fill="white" fill-opacity="0.1"/>
<path d="M14 931H7V938H14V931Z" fill="white" fill-opacity="0.1"/>
<path d="M14 945H7V952H14V945Z" fill="white" fill-opacity="0.1"/>
<path d="M14 959H7V966H14V959Z" fill="white" fill-opacity="0.1"/>
<path d="M14 973H7V980H14V973Z" fill="white" fill-opacity="0.1"/>
<path d="M14 987H7V994H14V987Z" fill="white" fill-opacity="0.1"/>
</svg>
