<svg width="1169" height="21" viewBox="0 0 1169 21" fill="none" xmlns="http://www.w3.org/2000/svg">
<path d="M56 14L56 21L63 21L63 14L56 14Z" fill="white" fill-opacity="0.1"/>
<path d="M56 0L56 7L63 7L63 -3.0598e-07L56 0Z" fill="white" fill-opacity="0.1"/>
<path d="M42 14L42 21L49 21L49 14L42 14Z" fill="white" fill-opacity="0.1"/>
<path d="M49 7L49 14L56 14L56 7L49 7Z" fill="white" fill-opacity="0.1"/>
<path d="M42 0L42 7L49 7L49 -3.0598e-07L42 0Z" fill="white" fill-opacity="0.1"/>
<path d="M28 14L28 21L35 21L35 14L28 14Z" fill="white" fill-opacity="0.1"/>
<path d="M35 7L35 14L42 14L42 7L35 7Z" fill="white" fill-opacity="0.1"/>
<path d="M28 0L28 7L35 7L35 -3.0598e-07L28 0Z" fill="white" fill-opacity="0.1"/>
<path d="M14 14L14 21L21 21L21 14L14 14Z" fill="white" fill-opacity="0.1"/>
<path d="M21 7L21 14L28 14L28 7L21 7Z" fill="white" fill-opacity="0.1"/>
<path d="M98 14L98 21L105 21L105 14L98 14Z" fill="white" fill-opacity="0.1"/>
<path d="M98 0L98 7L105 7L105 -3.0598e-07L98 0Z" fill="white" fill-opacity="0.1"/>
<path d="M84 14L84 21L91 21L91 14L84 14Z" fill="white" fill-opacity="0.1"/>
<path d="M91 7L91 14L98 14L98 7L91 7Z" fill="white" fill-opacity="0.1"/>
<path d="M84 0L84 7L91 7L91 -3.0598e-07L84 0Z" fill="white" fill-opacity="0.1"/>
<path d="M70 14L70 21L77 21L77 14L70 14Z" fill="white" fill-opacity="0.1"/>
<path d="M77 7L77 14L84 14L84 7L77 7Z" fill="white" fill-opacity="0.1"/>
<path d="M70 0L70 7L77 7L77 -3.0598e-07L70 0Z" fill="white" fill-opacity="0.1"/>
<path d="M63 7L63 14L70 14L70 7L63 7Z" fill="white" fill-opacity="0.1"/>
<path d="M140 14L140 21L147 21L147 14L140 14Z" fill="white" fill-opacity="0.1"/>
<path d="M140 0L140 7L147 7L147 -3.0598e-07L140 0Z" fill="white" fill-opacity="0.1"/>
<path d="M126 14L126 21L133 21L133 14L126 14Z" fill="white" fill-opacity="0.1"/>
<path d="M133 7L133 14L140 14L140 7L133 7Z" fill="white" fill-opacity="0.1"/>
<path d="M126 0L126 7L133 7L133 -3.0598e-07L126 0Z" fill="white" fill-opacity="0.1"/>
<path d="M112 14L112 21L119 21L119 14L112 14Z" fill="white" fill-opacity="0.1"/>
<path d="M119 7L119 14L126 14L126 7L119 7Z" fill="white" fill-opacity="0.1"/>
<path d="M112 0L112 7L119 7L119 -3.0598e-07L112 0Z" fill="white" fill-opacity="0.1"/>
<path d="M105 7L105 14L112 14L112 7L105 7Z" fill="white" fill-opacity="0.1"/>
<path d="M182 14L182 21L189 21L189 14L182 14Z" fill="white" fill-opacity="0.1"/>
<path d="M182 0L182 7L189 7L189 -3.0598e-07L182 0Z" fill="white" fill-opacity="0.1"/>
<path d="M168 14L168 21L175 21L175 14L168 14Z" fill="white" fill-opacity="0.1"/>
<path d="M175 7L175 14L182 14L182 7L175 7Z" fill="white" fill-opacity="0.1"/>
<path d="M168 0L168 7L175 7L175 -3.0598e-07L168 0Z" fill="white" fill-opacity="0.1"/>
<path d="M154 14L154 21L161 21L161 14L154 14Z" fill="white" fill-opacity="0.1"/>
<path d="M161 7L161 14L168 14L168 7L161 7Z" fill="white" fill-opacity="0.1"/>
<path d="M154 0L154 7L161 7L161 -3.0598e-07L154 0Z" fill="white" fill-opacity="0.1"/>
<path d="M147 7L147 14L154 14L154 7L147 7Z" fill="white" fill-opacity="0.1"/>
<path d="M224 14L224 21L231 21L231 14L224 14Z" fill="white" fill-opacity="0.1"/>
<path d="M224 0L224 7L231 7L231 -3.0598e-07L224 0Z" fill="white" fill-opacity="0.1"/>
<path d="M210 14L210 21L217 21L217 14L210 14Z" fill="white" fill-opacity="0.1"/>
<path d="M217 7L217 14L224 14L224 7L217 7Z" fill="white" fill-opacity="0.1"/>
<path d="M210 0L210 7L217 7L217 -3.0598e-07L210 0Z" fill="white" fill-opacity="0.1"/>
<path d="M196 14L196 21L203 21L203 14L196 14Z" fill="white" fill-opacity="0.1"/>
<path d="M203 7L203 14L210 14L210 7L203 7Z" fill="white" fill-opacity="0.1"/>
<path d="M196 0L196 7L203 7L203 -3.0598e-07L196 0Z" fill="white" fill-opacity="0.1"/>
<path d="M189 7L189 14L196 14L196 7L189 7Z" fill="white" fill-opacity="0.1"/>
<path d="M266 14L266 21L273 21L273 14L266 14Z" fill="white" fill-opacity="0.1"/>
<path d="M266 0L266 7L273 7L273 -3.0598e-07L266 0Z" fill="white" fill-opacity="0.1"/>
<path d="M252 14L252 21L259 21L259 14L252 14Z" fill="white" fill-opacity="0.1"/>
<path d="M259 7L259 14L266 14L266 7L259 7Z" fill="white" fill-opacity="0.1"/>
<path d="M252 0L252 7L259 7L259 -3.0598e-07L252 0Z" fill="white" fill-opacity="0.1"/>
<path d="M238 14L238 21L245 21L245 14L238 14Z" fill="white" fill-opacity="0.1"/>
<path d="M245 7L245 14L252 14L252 7L245 7Z" fill="white" fill-opacity="0.1"/>
<path d="M238 0L238 7L245 7L245 -3.0598e-07L238 0Z" fill="white" fill-opacity="0.1"/>
<path d="M231 7L231 14L238 14L238 7L231 7Z" fill="white" fill-opacity="0.1"/>
<path d="M308 14L308 21L315 21L315 14L308 14Z" fill="white" fill-opacity="0.1"/>
<path d="M308 0L308 7L315 7L315 -3.0598e-07L308 0Z" fill="white" fill-opacity="0.1"/>
<path d="M294 14L294 21L301 21L301 14L294 14Z" fill="white" fill-opacity="0.1"/>
<path d="M301 7L301 14L308 14L308 7L301 7Z" fill="white" fill-opacity="0.1"/>
<path d="M294 0L294 7L301 7L301 -3.0598e-07L294 0Z" fill="white" fill-opacity="0.1"/>
<path d="M280 14L280 21L287 21L287 14L280 14Z" fill="white" fill-opacity="0.1"/>
<path d="M287 7L287 14L294 14L294 7L287 7Z" fill="white" fill-opacity="0.1"/>
<path d="M280 0L280 7L287 7L287 -3.0598e-07L280 0Z" fill="white" fill-opacity="0.1"/>
<path d="M273 7L273 14L280 14L280 7L273 7Z" fill="white" fill-opacity="0.1"/>
<path d="M350 14L350 21L357 21L357 14L350 14Z" fill="white" fill-opacity="0.1"/>
<path d="M350 0L350 7L357 7L357 -3.0598e-07L350 0Z" fill="white" fill-opacity="0.1"/>
<path d="M336 14L336 21L343 21L343 14L336 14Z" fill="white" fill-opacity="0.1"/>
<path d="M343 7L343 14L350 14L350 7L343 7Z" fill="white" fill-opacity="0.1"/>
<path d="M336 0L336 7L343 7L343 -3.0598e-07L336 0Z" fill="white" fill-opacity="0.1"/>
<path d="M322 14L322 21L329 21L329 14L322 14Z" fill="white" fill-opacity="0.1"/>
<path d="M329 7L329 14L336 14L336 7L329 7Z" fill="white" fill-opacity="0.1"/>
<path d="M322 0L322 7L329 7L329 -3.0598e-07L322 0Z" fill="white" fill-opacity="0.1"/>
<path d="M315 7L315 14L322 14L322 7L315 7Z" fill="white" fill-opacity="0.1"/>
<path d="M392 14L392 21L399 21L399 14L392 14Z" fill="white" fill-opacity="0.1"/>
<path d="M392 0L392 7L399 7L399 -3.0598e-07L392 0Z" fill="white" fill-opacity="0.1"/>
<path d="M378 14L378 21L385 21L385 14L378 14Z" fill="white" fill-opacity="0.1"/>
<path d="M385 6.99997L385 14L392 14L392 6.99997L385 6.99997Z" fill="white" fill-opacity="0.1"/>
<path d="M378 0L378 7L385 7L385 -3.0598e-07L378 0Z" fill="white" fill-opacity="0.1"/>
<path d="M364 14L364 21L371 21L371 14L364 14Z" fill="white" fill-opacity="0.1"/>
<path d="M371 6.99997L371 14L378 14L378 6.99997L371 6.99997Z" fill="white" fill-opacity="0.1"/>
<path d="M364 0L364 7L371 7L371 -3.0598e-07L364 0Z" fill="white" fill-opacity="0.1"/>
<path d="M357 6.99997L357 14L364 14L364 6.99997L357 6.99997Z" fill="white" fill-opacity="0.1"/>
<path d="M434 14L434 21L441 21L441 14L434 14Z" fill="white" fill-opacity="0.1"/>
<path d="M434 0L434 7L441 7L441 -3.0598e-07L434 0Z" fill="white" fill-opacity="0.1"/>
<path d="M420 14L420 21L427 21L427 14L420 14Z" fill="white" fill-opacity="0.1"/>
<path d="M427 6.99997L427 14L434 14L434 6.99997L427 6.99997Z" fill="white" fill-opacity="0.1"/>
<path d="M420 0L420 7L427 7L427 -3.0598e-07L420 0Z" fill="white" fill-opacity="0.1"/>
<path d="M406 14L406 21L413 21L413 14L406 14Z" fill="white" fill-opacity="0.1"/>
<path d="M413 6.99997L413 14L420 14L420 6.99997L413 6.99997Z" fill="white" fill-opacity="0.1"/>
<path d="M406 0L406 7L413 7L413 -3.0598e-07L406 0Z" fill="white" fill-opacity="0.1"/>
<path d="M399 6.99997L399 14L406 14L406 6.99997L399 6.99997Z" fill="white" fill-opacity="0.1"/>
<path d="M476 14L476 21L483 21L483 14L476 14Z" fill="white" fill-opacity="0.1"/>
<path d="M476 0L476 7L483 7L483 -3.0598e-07L476 0Z" fill="white" fill-opacity="0.1"/>
<path d="M462 14L462 21L469 21L469 14L462 14Z" fill="white" fill-opacity="0.1"/>
<path d="M469 6.99997L469 14L476 14L476 6.99997L469 6.99997Z" fill="white" fill-opacity="0.1"/>
<path d="M462 0L462 7L469 7L469 -3.0598e-07L462 0Z" fill="white" fill-opacity="0.1"/>
<path d="M448 14L448 21L455 21L455 14L448 14Z" fill="white" fill-opacity="0.1"/>
<path d="M455 6.99997L455 14L462 14L462 6.99997L455 6.99997Z" fill="white" fill-opacity="0.1"/>
<path d="M448 0L448 7L455 7L455 -3.0598e-07L448 0Z" fill="white" fill-opacity="0.1"/>
<path d="M441 6.99997L441 14L448 14L448 6.99997L441 6.99997Z" fill="white" fill-opacity="0.1"/>
<path d="M518 14L518 21L525 21L525 14L518 14Z" fill="white" fill-opacity="0.1"/>
<path d="M518 0L518 7L525 7L525 -3.0598e-07L518 0Z" fill="white" fill-opacity="0.1"/>
<path d="M504 14L504 21L511 21L511 14L504 14Z" fill="white" fill-opacity="0.1"/>
<path d="M511 6.99997L511 14L518 14L518 6.99997L511 6.99997Z" fill="white" fill-opacity="0.1"/>
<path d="M504 0L504 7L511 7L511 -3.0598e-07L504 0Z" fill="white" fill-opacity="0.1"/>
<path d="M490 14L490 21L497 21L497 14L490 14Z" fill="white" fill-opacity="0.1"/>
<path d="M497 6.99997L497 14L504 14L504 6.99997L497 6.99997Z" fill="white" fill-opacity="0.1"/>
<path d="M490 0L490 7L497 7L497 -3.0598e-07L490 0Z" fill="white" fill-opacity="0.1"/>
<path d="M483 6.99997L483 14L490 14L490 6.99997L483 6.99997Z" fill="white" fill-opacity="0.1"/>
<path d="M560 14L560 21L567 21L567 14L560 14Z" fill="white" fill-opacity="0.1"/>
<path d="M560 0L560 7L567 7L567 -3.0598e-07L560 0Z" fill="white" fill-opacity="0.1"/>
<path d="M546 14L546 21L553 21L553 14L546 14Z" fill="white" fill-opacity="0.1"/>
<path d="M553 6.99997L553 14L560 14L560 6.99997L553 6.99997Z" fill="white" fill-opacity="0.1"/>
<path d="M546 0L546 7L553 7L553 -3.0598e-07L546 0Z" fill="white" fill-opacity="0.1"/>
<path d="M532 14L532 21L539 21L539 14L532 14Z" fill="white" fill-opacity="0.1"/>
<path d="M539 6.99997L539 14L546 14L546 6.99997L539 6.99997Z" fill="white" fill-opacity="0.1"/>
<path d="M532 0L532 7L539 7L539 -3.0598e-07L532 0Z" fill="white" fill-opacity="0.1"/>
<path d="M525 6.99997L525 14L532 14L532 6.99997L525 6.99997Z" fill="white" fill-opacity="0.1"/>
<path d="M602 14L602 21L609 21L609 14L602 14Z" fill="white" fill-opacity="0.1"/>
<path d="M602 0L602 7L609 7L609 -3.0598e-07L602 0Z" fill="white" fill-opacity="0.1"/>
<path d="M588 14L588 21L595 21L595 14L588 14Z" fill="white" fill-opacity="0.1"/>
<path d="M595 6.99997L595 14L602 14L602 6.99997L595 6.99997Z" fill="white" fill-opacity="0.1"/>
<path d="M588 0L588 7L595 7L595 -3.0598e-07L588 0Z" fill="white" fill-opacity="0.1"/>
<path d="M574 14L574 21L581 21L581 14L574 14Z" fill="white" fill-opacity="0.1"/>
<path d="M581 6.99997L581 14L588 14L588 6.99997L581 6.99997Z" fill="white" fill-opacity="0.1"/>
<path d="M574 0L574 7L581 7L581 -3.0598e-07L574 0Z" fill="white" fill-opacity="0.1"/>
<path d="M567 6.99997L567 14L574 14L574 6.99997L567 6.99997Z" fill="white" fill-opacity="0.1"/>
<path d="M644 14L644 21L651 21L651 14L644 14Z" fill="white" fill-opacity="0.1"/>
<path d="M644 0L644 7L651 7L651 -3.0598e-07L644 0Z" fill="white" fill-opacity="0.1"/>
<path d="M630 14L630 21L637 21L637 14L630 14Z" fill="white" fill-opacity="0.1"/>
<path d="M637 6.99997L637 14L644 14L644 6.99997L637 6.99997Z" fill="white" fill-opacity="0.1"/>
<path d="M630 0L630 7L637 7L637 -3.0598e-07L630 0Z" fill="white" fill-opacity="0.1"/>
<path d="M616 14L616 21L623 21L623 14L616 14Z" fill="white" fill-opacity="0.1"/>
<path d="M623 6.99997L623 14L630 14L630 6.99997L623 6.99997Z" fill="white" fill-opacity="0.1"/>
<path d="M616 0L616 7L623 7L623 -3.0598e-07L616 0Z" fill="white" fill-opacity="0.1"/>
<path d="M609 6.99997L609 14L616 14L616 6.99997L609 6.99997Z" fill="white" fill-opacity="0.1"/>
<path d="M686 14L686 21L693 21L693 14L686 14Z" fill="white" fill-opacity="0.1"/>
<path d="M686 0L686 7L693 7L693 -3.0598e-07L686 0Z" fill="white" fill-opacity="0.1"/>
<path d="M672 14L672 21L679 21L679 14L672 14Z" fill="white" fill-opacity="0.1"/>
<path d="M679 6.99997L679 14L686 14L686 6.99997L679 6.99997Z" fill="white" fill-opacity="0.1"/>
<path d="M672 0L672 7L679 7L679 -3.0598e-07L672 0Z" fill="white" fill-opacity="0.1"/>
<path d="M658 14L658 21L665 21L665 14L658 14Z" fill="white" fill-opacity="0.1"/>
<path d="M665 6.99997L665 14L672 14L672 6.99997L665 6.99997Z" fill="white" fill-opacity="0.1"/>
<path d="M658 0L658 7L665 7L665 -3.0598e-07L658 0Z" fill="white" fill-opacity="0.1"/>
<path d="M651 6.99997L651 14L658 14L658 6.99997L651 6.99997Z" fill="white" fill-opacity="0.1"/>
<path d="M728 14L728 21L735 21L735 14L728 14Z" fill="white" fill-opacity="0.1"/>
<path d="M728 -6.10352e-05L728 6.99994L735 6.99994L735 -6.13411e-05L728 -6.10352e-05Z" fill="white" fill-opacity="0.1"/>
<path d="M714 14L714 21L721 21L721 14L714 14Z" fill="white" fill-opacity="0.1"/>
<path d="M721 6.99997L721 14L728 14L728 6.99997L721 6.99997Z" fill="white" fill-opacity="0.1"/>
<path d="M714 -6.10352e-05L714 6.99994L721 6.99994L721 -6.13411e-05L714 -6.10352e-05Z" fill="white" fill-opacity="0.1"/>
<path d="M700 14L700 21L707 21L707 14L700 14Z" fill="white" fill-opacity="0.1"/>
<path d="M707 6.99997L707 14L714 14L714 6.99997L707 6.99997Z" fill="white" fill-opacity="0.1"/>
<path d="M700 -6.10352e-05L700 6.99994L707 6.99994L707 -6.13411e-05L700 -6.10352e-05Z" fill="white" fill-opacity="0.1"/>
<path d="M693 6.99997L693 14L700 14L700 6.99997L693 6.99997Z" fill="white" fill-opacity="0.1"/>
<path d="M770 14L770 21L777 21L777 14L770 14Z" fill="white" fill-opacity="0.1"/>
<path d="M770 -6.10352e-05L770 6.99994L777 6.99994L777 -6.13411e-05L770 -6.10352e-05Z" fill="white" fill-opacity="0.1"/>
<path d="M756 14L756 21L763 21L763 14L756 14Z" fill="white" fill-opacity="0.1"/>
<path d="M763 6.99997L763 14L770 14L770 6.99997L763 6.99997Z" fill="white" fill-opacity="0.1"/>
<path d="M756 -6.10352e-05L756 6.99994L763 6.99994L763 -6.13411e-05L756 -6.10352e-05Z" fill="white" fill-opacity="0.1"/>
<path d="M742 14L742 21L749 21L749 14L742 14Z" fill="white" fill-opacity="0.1"/>
<path d="M749 6.99997L749 14L756 14L756 6.99997L749 6.99997Z" fill="white" fill-opacity="0.1"/>
<path d="M742 -6.10352e-05L742 6.99994L749 6.99994L749 -6.13411e-05L742 -6.10352e-05Z" fill="white" fill-opacity="0.1"/>
<path d="M735 6.99997L735 14L742 14L742 6.99997L735 6.99997Z" fill="white" fill-opacity="0.1"/>
<path d="M812 14L812 21L819 21L819 14L812 14Z" fill="white" fill-opacity="0.1"/>
<path d="M812 -6.10352e-05L812 6.99994L819 6.99994L819 -6.13411e-05L812 -6.10352e-05Z" fill="white" fill-opacity="0.1"/>
<path d="M798 14L798 21L805 21L805 14L798 14Z" fill="white" fill-opacity="0.1"/>
<path d="M805 6.99997L805 14L812 14L812 6.99997L805 6.99997Z" fill="white" fill-opacity="0.1"/>
<path d="M798 -6.10352e-05L798 6.99994L805 6.99994L805 -6.13411e-05L798 -6.10352e-05Z" fill="white" fill-opacity="0.1"/>
<path d="M784 14L784 21L791 21L791 14L784 14Z" fill="white" fill-opacity="0.1"/>
<path d="M791 6.99997L791 14L798 14L798 6.99997L791 6.99997Z" fill="white" fill-opacity="0.1"/>
<path d="M784 -6.10352e-05L784 6.99994L791 6.99994L791 -6.13411e-05L784 -6.10352e-05Z" fill="white" fill-opacity="0.1"/>
<path d="M777 6.99997L777 14L784 14L784 6.99997L777 6.99997Z" fill="white" fill-opacity="0.1"/>
<path d="M840 14L840 21L847 21L847 14L840 14Z" fill="white" fill-opacity="0.1"/>
<path d="M840 -6.10352e-05L840 6.99994L847 6.99994L847 -6.13411e-05L840 -6.10352e-05Z" fill="white" fill-opacity="0.1"/>
<path d="M826 14L826 21L833 21L833 14L826 14Z" fill="white" fill-opacity="0.1"/>
<path d="M833 6.99997L833 14L840 14L840 6.99997L833 6.99997Z" fill="white" fill-opacity="0.1"/>
<path d="M826 -6.10352e-05L826 6.99994L833 6.99994L833 -6.13411e-05L826 -6.10352e-05Z" fill="white" fill-opacity="0.1"/>
<path d="M819 6.99997L819 14L826 14L826 6.99997L819 6.99997Z" fill="white" fill-opacity="0.1"/>
<path d="M14 0L14 7L21 7L21 -3.0598e-07L14 0Z" fill="white" fill-opacity="0.1"/>
<path d="M-3.0598e-07 14L0 21L7 21L7 14L-3.0598e-07 14Z" fill="white" fill-opacity="0.1"/>
<path d="M7 7L7 14L14 14L14 7L7 7Z" fill="white" fill-opacity="0.1"/>
<path d="M-3.0598e-07 0L0 7L7 7L7 -3.0598e-07L-3.0598e-07 0Z" fill="white" fill-opacity="0.1"/>
<path d="M854 14L854 21L861 21L861 14L854 14Z" fill="white" fill-opacity="0.1"/>
<path d="M854 -6.10352e-05L854 6.99994L861 6.99994L861 -6.13411e-05L854 -6.10352e-05Z" fill="white" fill-opacity="0.1"/>
<path d="M847 6.99997L847 14L854 14L854 6.99997L847 6.99997Z" fill="white" fill-opacity="0.1"/>
<path d="M868 14L868 21L875 21L875 14L868 14Z" fill="white" fill-opacity="0.1"/>
<path d="M882 14L882 21L889 21L889 14L882 14Z" fill="white" fill-opacity="0.1"/>
<path d="M896 14L896 21L903 21L903 14L896 14Z" fill="white" fill-opacity="0.1"/>
<path d="M910 14L910 21L917 21L917 14L910 14Z" fill="white" fill-opacity="0.1"/>
<path d="M924 14L924 21L931 21L931 14L924 14Z" fill="white" fill-opacity="0.1"/>
<path d="M938 14L938 21L945 21L945 14L938 14Z" fill="white" fill-opacity="0.1"/>
<path d="M952 14L952 21L959 21L959 14L952 14Z" fill="white" fill-opacity="0.1"/>
<path d="M966 14L966 21L973 21L973 14L966 14Z" fill="white" fill-opacity="0.1"/>
<path d="M980 14L980 21L987 21L987 14L980 14Z" fill="white" fill-opacity="0.1"/>
<path d="M994 14L994 21L1001 21L1001 14L994 14Z" fill="white" fill-opacity="0.1"/>
<path d="M1008 14L1008 21L1015 21L1015 14L1008 14Z" fill="white" fill-opacity="0.1"/>
<path d="M1022 14L1022 21L1029 21L1029 14L1022 14Z" fill="white" fill-opacity="0.1"/>
<path d="M1036 14L1036 21L1043 21L1043 14L1036 14Z" fill="white" fill-opacity="0.1"/>
<path d="M1050 14L1050 21L1057 21L1057 14L1050 14Z" fill="white" fill-opacity="0.1"/>
<path d="M1064 14L1064 21L1071 21L1071 14L1064 14Z" fill="white" fill-opacity="0.1"/>
<path d="M1078 14L1078 21L1085 21L1085 14L1078 14Z" fill="white" fill-opacity="0.1"/>
<path d="M1092 14L1092 21L1099 21L1099 14L1092 14Z" fill="white" fill-opacity="0.1"/>
<path d="M1106 14L1106 21L1113 21L1113 14L1106 14Z" fill="white" fill-opacity="0.1"/>
<path d="M1120 14L1120 21L1127 21L1127 14L1120 14Z" fill="white" fill-opacity="0.1"/>
<path d="M1134 14L1134 21L1141 21L1141 14L1134 14Z" fill="white" fill-opacity="0.1"/>
<path d="M1148 14L1148 21L1155 21L1155 14L1148 14Z" fill="white" fill-opacity="0.1"/>
<path d="M1162 14L1162 21L1169 21L1169 14L1162 14Z" fill="white" fill-opacity="0.1"/>
<path d="M868 -6.10352e-05L868 6.99994L875 6.99994L875 -6.13411e-05L868 -6.10352e-05Z" fill="white" fill-opacity="0.1"/>
<path d="M882 -6.10352e-05L882 6.99994L889 6.99994L889 -6.13411e-05L882 -6.10352e-05Z" fill="white" fill-opacity="0.1"/>
<path d="M896 -6.10352e-05L896 6.99994L903 6.99994L903 -6.13411e-05L896 -6.10352e-05Z" fill="white" fill-opacity="0.1"/>
<path d="M910 -6.10352e-05L910 6.99994L917 6.99994L917 -6.13411e-05L910 -6.10352e-05Z" fill="white" fill-opacity="0.1"/>
<path d="M924 -6.10352e-05L924 6.99994L931 6.99994L931 -6.13411e-05L924 -6.10352e-05Z" fill="white" fill-opacity="0.1"/>
<path d="M938 -6.10352e-05L938 6.99994L945 6.99994L945 -6.13411e-05L938 -6.10352e-05Z" fill="white" fill-opacity="0.1"/>
<path d="M952 -6.10352e-05L952 6.99994L959 6.99994L959 -6.13411e-05L952 -6.10352e-05Z" fill="white" fill-opacity="0.1"/>
<path d="M966 -6.10352e-05L966 6.99994L973 6.99994L973 -6.13411e-05L966 -6.10352e-05Z" fill="white" fill-opacity="0.1"/>
<path d="M980 -6.10352e-05L980 6.99994L987 6.99994L987 -6.13411e-05L980 -6.10352e-05Z" fill="white" fill-opacity="0.1"/>
<path d="M994 0L994 7L1001 7L1001 -3.0598e-07L994 0Z" fill="white" fill-opacity="0.1"/>
<path d="M1008 0L1008 7L1015 7L1015 -3.0598e-07L1008 0Z" fill="white" fill-opacity="0.1"/>
<path d="M1022 0L1022 7L1029 7L1029 -3.0598e-07L1022 0Z" fill="white" fill-opacity="0.1"/>
<path d="M1036 0L1036 7L1043 7L1043 -3.0598e-07L1036 0Z" fill="white" fill-opacity="0.1"/>
<path d="M1050 0L1050 7L1057 7L1057 -3.0598e-07L1050 0Z" fill="white" fill-opacity="0.1"/>
<path d="M1064 0L1064 7L1071 7L1071 -3.0598e-07L1064 0Z" fill="white" fill-opacity="0.1"/>
<path d="M1078 0L1078 7L1085 7L1085 -3.0598e-07L1078 0Z" fill="white" fill-opacity="0.1"/>
<path d="M1092 0L1092 7L1099 7L1099 -3.0598e-07L1092 0Z" fill="white" fill-opacity="0.1"/>
<path d="M1106 0L1106 7L1113 7L1113 -3.0598e-07L1106 0Z" fill="white" fill-opacity="0.1"/>
<path d="M1120 0L1120 7L1127 7L1127 -3.0598e-07L1120 0Z" fill="white" fill-opacity="0.1"/>
<path d="M1134 0L1134 7L1141 7L1141 -3.0598e-07L1134 0Z" fill="white" fill-opacity="0.1"/>
<path d="M1148 0L1148 7L1155 7L1155 -3.0598e-07L1148 0Z" fill="white" fill-opacity="0.1"/>
<path d="M1162 0L1162 7L1169 7L1169 -3.0598e-07L1162 0Z" fill="white" fill-opacity="0.1"/>
<path d="M861 6.99997L861 14L868 14L868 6.99997L861 6.99997Z" fill="white" fill-opacity="0.1"/>
<path d="M875 6.99997L875 14L882 14L882 6.99997L875 6.99997Z" fill="white" fill-opacity="0.1"/>
<path d="M889 6.99997L889 14L896 14L896 6.99997L889 6.99997Z" fill="white" fill-opacity="0.1"/>
<path d="M903 6.99997L903 14L910 14L910 6.99997L903 6.99997Z" fill="white" fill-opacity="0.1"/>
<path d="M917 6.99997L917 14L924 14L924 6.99997L917 6.99997Z" fill="white" fill-opacity="0.1"/>
<path d="M931 6.99997L931 14L938 14L938 6.99997L931 6.99997Z" fill="white" fill-opacity="0.1"/>
<path d="M945 6.99997L945 14L952 14L952 6.99997L945 6.99997Z" fill="white" fill-opacity="0.1"/>
<path d="M959 6.99997L959 14L966 14L966 6.99997L959 6.99997Z" fill="white" fill-opacity="0.1"/>
<path d="M973 6.99997L973 14L980 14L980 6.99997L973 6.99997Z" fill="white" fill-opacity="0.1"/>
<path d="M987 7L987 14L994 14L994 7L987 7Z" fill="white" fill-opacity="0.1"/>
<path d="M1001 7L1001 14L1008 14L1008 7L1001 7Z" fill="white" fill-opacity="0.1"/>
<path d="M1015 7L1015 14L1022 14L1022 7L1015 7Z" fill="white" fill-opacity="0.1"/>
<path d="M1029 7L1029 14L1036 14L1036 7L1029 7Z" fill="white" fill-opacity="0.1"/>
<path d="M1043 7L1043 14L1050 14L1050 7L1043 7Z" fill="white" fill-opacity="0.1"/>
<path d="M1057 7L1057 14L1064 14L1064 7L1057 7Z" fill="white" fill-opacity="0.1"/>
<path d="M1071 7L1071 14L1078 14L1078 7L1071 7Z" fill="white" fill-opacity="0.1"/>
<path d="M1085 7L1085 14L1092 14L1092 7L1085 7Z" fill="white" fill-opacity="0.1"/>
<path d="M1099 7L1099 14L1106 14L1106 7L1099 7Z" fill="white" fill-opacity="0.1"/>
<path d="M1113 7L1113 14L1120 14L1120 7L1113 7Z" fill="white" fill-opacity="0.1"/>
<path d="M1127 7L1127 14L1134 14L1134 7L1127 7Z" fill="white" fill-opacity="0.1"/>
<path d="M1141 7L1141 14L1148 14L1148 7L1141 7Z" fill="white" fill-opacity="0.1"/>
<path d="M1155 7L1155 14L1162 14L1162 7L1155 7Z" fill="white" fill-opacity="0.1"/>
</svg>
